<svg width="375" height="812" viewBox="0 0 375 812" fill="none" xmlns="http://www.w3.org/2000/svg">
  <rect width="375" height="812" fill="#0F172A"/>
  <defs>
    <linearGradient id="paint0_linear" x1="0" y1="0" x2="375" y2="812" gradientUnits="userSpaceOnUse">
      <stop stop-color="#6366F1"/>
      <stop offset="1" stop-color="#A855F7"/>
    </linearGradient>
  </defs>
  <circle cx="187.5" cy="406" r="150" fill="url(#paint0_linear)" fill-opacity="0.1"/>
  <path d="M187.5 320C154.363 320 127.5 346.863 127.5 380C127.5 413.137 154.363 440 187.5 440C220.637 440 247.5 413.137 247.5 380C247.5 346.863 220.637 320 187.5 320ZM187.5 410C170.931 410 157.5 396.569 157.5 380C157.5 363.431 170.931 350 187.5 350C204.069 350 217.5 363.431 217.5 380C217.5 396.569 204.069 410 187.5 410Z" fill="#6366F1"/>
  <path d="M187.5 460C143.317 460 107.5 486.863 107.5 520V540H267.5V520C267.5 486.863 231.683 460 187.5 460ZM137.5 520C137.5 503.431 159.931 490 187.5 490C215.069 490 237.5 503.431 237.5 520H137.5Z" fill="#A855F7"/>
  <text x="187.5" y="600" text-anchor="middle" fill="white" style="font-family: Arial, sans-serif; font-size: 32px; font-weight: bold;">Player Finder</text>
  <text x="187.5" y="635" text-anchor="middle" fill="#94A3B8" style="font-family: Arial, sans-serif; font-size: 16px;">Find your ultimate squad</text>
  {/* Filter Buttons Mockup */}
  <rect x="40" y="80" width="80" height="30" rx="15" fill="#1E293B" stroke="#6366F1"/>
  <text x="80" y="100" text-anchor="middle" fill="white" style="font-family: Arial, sans-serif; font-size: 12px;">Valorant</text>
  <rect x="147.5" y="80" width="80" height="30" rx="15" fill="#6366F1"/>
  <text x="187.5" y="100" text-anchor="middle" fill="white" style="font-family: Arial, sans-serif; font-size: 12px;">FIFA</text>
  <rect x="255" y="80" width="80" height="30" rx="15" fill="#1E293B" stroke="#6366F1"/>
  <text x="295" y="100" text-anchor="middle" fill="white" style="font-family: Arial, sans-serif; font-size: 12px;">Fortnite</text>
</svg>
